<svg class="h-9 w-auto" id="Layer_2" data-name="Layer 2" width="32" height="32" fill="none" xmlns="http://www.w3.org/2000/svg" xmlns:xlink="http://www.w3.org/1999/xlink" viewBox="0 0 32 32">
	<rect x="3" y="4" width="25" height="24" rx="1" stroke="rgb(110, 110, 110)"></rect>
	<rect x="13" y="8" width="1" height="4" rx=".5" transform="rotate(-90 13 8)" fill="rgb(110, 110, 110)"></rect>
	<rect x="20" y="8" width="1" height="4" rx=".5" transform="rotate(-90 20 8)" fill="rgb(110, 110, 110)"></rect>
	<rect x="6" y="8" width="1" height="4" rx=".5" transform="rotate(-90 6 8)" fill="rgb(110, 110, 110)"></rect>
	<rect x="6.5" y="12.5" width="2" height="4" rx=".5" transform="rotate(-90 6.5 12.5)" stroke="rgb(110, 110, 110)"></rect>
	<rect x="13.5" y="12.5" width="2" height="4" rx=".5" transform="rotate(-90 13.5 12.5)" stroke="rgb(110, 110, 110)"></rect>
	<rect x="20.5" y="12.5" width="2" height="4" rx=".5" transform="rotate(-90 20.5 12.5)" stroke="rgb(110, 110, 110)"></rect>
	<rect x="20.5" y="16.5" width="2" height="4" rx=".5" transform="rotate(-90 20.5 16.5)" stroke="rgb(110, 110, 110)"></rect>
	<rect x="20.5" y="20.5" width="2" height="4" rx=".5" transform="rotate(-90 20.5 20.5)" stroke="rgb(110, 110, 110)"></rect>
	<rect x="6.5" y="16.5" width="2" height="4" rx=".5" transform="rotate(-90 6.5 16.5)" stroke="rgb(110, 110, 110)"></rect>
	<rect x="13.5" y="16.5" width="2" height="4" rx=".5" transform="rotate(-90 13.5 16.5)" stroke="rgb(110, 110, 110)"></rect>
	<rect x="6.5" y="20.5" width="2" height="4" rx=".5" transform="rotate(-90 6.5 20.5)" stroke="rgb(110, 110, 110)"></rect>
	<rect x="6.5" y="24.5" width="2" height="4" rx=".5" transform="rotate(-90 6.5 24.5)" stroke="rgb(110, 110, 110)"></rect>
</svg>