<svg class="h-9 w-auto" id="Layer_2" data-name="Layer 2" width="24" height="24" fill="none" xmlns="http://www.w3.org/2000/svg" xmlns:xlink="http://www.w3.org/1999/xlink" viewBox="0 0 32 32">
<path fill-rule="evenodd" clip-rule="evenodd" d="M26.383 23.5a2.25 2.25 0 01-4.444.5h-5.25l.951.571a.5.5 0 01-.514.858L13.91 23.5l3.215-1.929a.5.5 0 11.514.858l-.952.571h5.25a2.25 2.25 0 014.445.5zm-.9 0a1.375 1.375 0 11-2.75 0 1.375 1.375 0 012.75 0zM19.67 10.948a2.25 2.25 0 10-1.285 3.276l2.625 4.547-.97-.539a.5.5 0 00-.486.874l3.278 1.82.063-3.748a.5.5 0 10-1-.017l-.019 1.11-2.625-4.547a2.25 2.25 0 00.418-2.776zm-.746.46a1.375 1.375 0 10-2.382 1.375 1.375 1.375 0 002.382-1.375z" fill="rgb(110, 110, 110)"></path><path fill-rule="evenodd" clip-rule="evenodd" d="M6 2h3.5a.5.5 0 01.5.5V5h19.5a.5.5 0 01.5.5v24a.5.5 0 01-.5.5H6a4 4 0 01-3.969-4.5H2V6a4 4 0 014-4zM3 6a3 3 0 013-3h3v19H6a3.99 3.99 0 00-3 1.354V6zm7 15.5V6h19v23H6a3 3 0 110-6h2.874a2.25 2.25 0 103.73-1.173l2.625-4.547.019 1.11a.5.5 0 101-.017l-.064-3.748-3.277 1.82a.5.5 0 00.485.874l.971-.54-2.625 4.548A2.253 2.253 0 0010 21.5zm-.153 1.36a.5.5 0 00.134-.223 1.375 1.375 0 11-.134.223z" fill="rgb(110, 110, 110)"></path></svg>