<?xml version="1.0" encoding="UTF-8"?>
<svg id="Layer_2" data-name="Layer 2" xmlns="http://www.w3.org/2000/svg" xmlns:xlink="http://www.w3.org/1999/xlink" viewBox="0 0 649.39 96.61">
	<path fill="#454B57" d="M21 6h-5.24a3.46 3.46 0 00-3.51-3 3.46 3.46 0 00-3.51 3H3a1 1 0 00-1 1v14a1 1 0 001 1h18a1 1 0 001-1V7a1 1 0 00-1-1zm-8.75-2a2.44 2.44 0 012.51 2h-5a2.44 2.44 0 012.49-2zM21 7v3.68A10.39 10.39 0 0117 12v-1.5a.5.5 0 00-1 0v1.68a29.88 29.88 0 01-3.84.23A30.53 30.53 0 018 12.14V10.5a.5.5 0 00-1 0V12a12.51 12.51 0 01-4-1.3V7zM3 21v-9.19A15.9 15.9 0 007 13v.5a.5.5 0 001 0v-.35a31 31 0 004.16.26 32.27 32.27 0 003.84-.22v.31a.5.5 0 001 0V13a14.25 14.25 0 004-1.2V21z">
	</path>
</svg>