<svg class="h-9 w-auto" id="Layer_2" data-name="Layer 2" width="24" height="24" fill="none" xmlns="http://www.w3.org/2000/svg" xmlns:xlink="http://www.w3.org/1999/xlink" viewBox="0 0 24 24">
  <g fill="#454B57">
    <path d="M19.92 16.38l-2.47 2.2-1.37-1.22a.5.5 0 10-.66.74l1.7 1.52a.46.46 0 00.33.13.5.5 0 00.34-.13l2.79-2.5a.5.5 0 10-.66-.74z"></path>
    <path d="M22 15V6.5A1.5 1.5 0 0020.5 5H17V3.5a.5.5 0 00-1 0V5H9V3.5a.5.5 0 00-1 0V5H4.5A1.5 1.5 0 003 6.5v12A1.5 1.5 0 004.5 20h8.92A5 5 0 0023 18a4.94 4.94 0 00-1-3zM4 6.5a.5.5 0 01.5-.5H8v.5a.5.5 0 001 0V6h7v.5a.5.5 0 001 0V6h3.5a.5.5 0 01.5.5V8H4zM4.5 19a.5.5 0 01-.5-.5V9h17v5a3.46 3.46 0 00-.47-.31l-.32-.17-.42-.19a4.58 4.58 0 00-.49-.15c-.12 0-.23-.07-.35-.09A5.5 5.5 0 0018 13a5 5 0 00-5 5 4 4 0 00.09.84.86.86 0 000 .16zM18 22a4 4 0 01-3.75-2.66 4.23 4.23 0 01-.18-.65A3.82 3.82 0 0114 18a4 4 0 014-4 4.12 4.12 0 01.86.1H19a4.53 4.53 0 01.68.24l.11.06a4.59 4.59 0 01.66.42 4.62 4.62 0 01.62.63A3.93 3.93 0 0122 18a4 4 0 01-4 4z"></path>
  </g>
</svg>