<?xml version="1.0" encoding="UTF-8"?>
<svg id="Layer_2" data-name="Layer 2" xmlns="http://www.w3.org/2000/svg" xmlns:xlink="http://www.w3.org/1999/xlink" viewBox="0 0 649.39 96.61">
<g fill="#454B57"><circle cx="8" cy="8" r="1"></circle><circle cx="12" cy="8" r="1"></circle><circle cx="8" cy="12" r="1"></circle><circle cx="12" cy="12" r="1"></circle><circle cx="8" cy="16" r="1"></circle><circle cx="12" cy="16" r="1"></circle><path d="M18 1H8.05A1 1 0 007 2v3H5.05A1 1 0 004 6v16a1 1 0 001 1h2.5a.5.5 0 00.5-.5V22h4v.5a.5.5 0 00.5.5H15a1 1 0 001-1v-3h2a1 1 0 001-1V2a1 1 0 00-1-1zm-6 20H8v-1h4zm3 1h-2v-2.5a.5.5 0 00-.5-.5h-5a.5.5 0 00-.5.5V22H5V6h10zm3-4h-2V6a1 1 0 00-1-1H8V2h10z"></path></g></svg>