<?xml version="1.0" encoding="UTF-8"?>
<svg id="Layer_2" data-name="Layer 2" xmlns="http://www.w3.org/2000/svg" xmlns:xlink="http://www.w3.org/1999/xlink" viewBox="0 0 649.39 96.61">
<path d="M3.5 15.5v-2M14.692 21.5l-.608-.8a2.842 2.842 0 01-.584-1.646c0 1.1.9 2.448 1.957 2.448zm-6.149 0c1.054 0 1.957-1.346 1.957-2.448a2.842 2.842 0 01-.584 1.648l-.608.8zM1.5 5.752zM2 5.5z"></path><path d="M22.248 5H1.752A.752.752 0 001 5.752v11.5a.752.752 0 00.752.748H10v1.052C10 19.9 9.293 21 8.543 21H7.5a.5.5 0 000 1h9a.5.5 0 000-1h-1.043C14.707 21 14 19.9 14 19.052V18h8.248a.752.752 0 00.752-.752V5.752A.752.752 0 0022.248 5zM2 17V6h20v11zm8.315 4A3.343 3.343 0 0011 19.052V18h2v1.052A3.343 3.343 0 0013.685 21z"></path><path d="M5.5 16a.5.5 0 00.5-.5v-5a.5.5 0 00-1 0v5a.5.5 0 00.5.5z"></path><path d="M5.5 10a.5.5 0 00-.5.5v5a.5.5 0 001 0v-5a.5.5 0 00-.5-.5zM7.5 16a.5.5 0 00.5-.5v-3a.5.5 0 00-1 0v3a.5.5 0 00.5.5z"></path><path d="M7.5 12a.5.5 0 00-.5.5v3a.5.5 0 001 0v-3a.5.5 0 00-.5-.5zM9.5 16a.5.5 0 00.5-.5v-8a.5.5 0 00-1 0v8a.5.5 0 00.5.5z"></path><path d="M9.5 7a.5.5 0 00-.5.5v8a.5.5 0 001 0v-8a.5.5 0 00-.5-.5zM16.5 15.5h.011a4.014 4.014 0 003.938-3.429l.049-.34a4 4 0 01-3.992 3.769zm-.016 0a3.977 3.977 0 01-2.276-.723l.063.043a3.975 3.975 0 002.214.68zm-2.826-1.187a3.984 3.984 0 01-1.159-2.8 3.938 3.938 0 00.935 2.532zm2.848-2.813h.244l-.227.227zm-4.006.011v-.017a4 4 0 013.769-3.987l-.34.049a4.014 4.014 0 00-3.429 3.938zm4-3.994zm3.944 3.429a4.005 4.005 0 00-3.373-3.373l-.342-.049a4 4 0 013.764 3.764z"></path><path d="M16.5 7a4.5 4.5 0 104.5 4.5A4.505 4.505 0 0016.5 7zm.5 4V8.051A3.485 3.485 0 0119.949 11zm-3.18 2.723A3.465 3.465 0 0116 8.051V11.5c0 .013.006.023.007.036l-2.187 2.187zM16.5 15a3.477 3.477 0 01-1.948-.6l2.405-2.4h2.992a3.494 3.494 0 01-3.449 3z"></path></g></svg>