<svg class="h-9 w-auto" id="Layer_2" data-name="Layer 2" xmlns="http://www.w3.org/2000/svg" xmlns:xlink="http://www.w3.org/1999/xlink" viewBox="0 0 24 24">
  <g fill="#454B57">
    <path d="M16.5 7h-9a.5.5 0 000 1h9a.5.5 0 000-1zM16.5 11h-9a.5.5 0 000 1h9a.5.5 0 000-1zM11.5 16h-4a.5.5 0 000 1h4a.5.5 0 000-1z"></path>
    <path d="M18.5 2h-13A1.5 1.5 0 004 3.5v17A1.5 1.5 0 005.5 22h13a1.5 1.5 0 001.5-1.5v-17A1.5 1.5 0 0018.5 2zm.5 18.5a.5.5 0 01-.5.5h-13a.5.5 0 01-.5-.5v-17a.5.5 0 01.5-.5h13a.5.5 0 01.5.5z"></path>
  </g>
</svg>