<?xml version="1.0" encoding="UTF-8"?>
<svg id="Layer_2" data-name="Layer 2" xmlns="http://www.w3.org/2000/svg" xmlns:xlink="http://www.w3.org/1999/xlink" viewBox="0 0 649.39 96.61">
<path fill="#454B57" d="M19.64 7.26l-4.82-4.89A1.19 1.19 0 0014 2H5.23A1.24 1.24 0 004 3.25v17.5A1.24 1.24 0 005.23 22h13.54A1.24 1.24 0 0020 20.75V8.15a1.27 1.27 0 00-.36-.89zm-.7.74H15V4l3.93 4h.01zm-.17 13H5.23a.24.24 0 01-.23-.25V3.25A.24.24 0 015.23 3H14v5.5a.5.5 0 00.5.5H19v11.75a.24.24 0 01-.23.25z"></path></svg>