<svg class="h-9 w-auto" id="Layer_2" data-name="Layer 2" width="24" height="24" fill="none" xmlns="http://www.w3.org/2000/svg" xmlns:xlink="http://www.w3.org/1999/xlink" viewBox="0 0 32 32">
	<path fill="#454B57" d="M21.962 12.191a.505.505 0 000-.382.518.518 0 00-.109-.163l-3.888-3.888a.5.5 0 10-.707.707l3.035 3.035H11.5a.5.5 0 000 1h8.793l-3.035 3.035a.5.5 0 10.707.707l3.888-3.888a.518.518 0 00.109-.163zM7.5 2h-5a.5.5 0 000 1h5a.5.5 0 000-1zM7.5 7h-5a.5.5 0 000 1h5a.5.5 0 000-1zM7.5 11.5h-5a.5.5 0 000 1h5a.5.5 0 000-1zM7.5 16h-5a.5.5 0 000 1h5a.5.5 0 000-1zM7.5 21h-5a.5.5 0 000 1h5a.5.5 0 000-1z">
	</path>
</svg>