<?xml version="1.0" encoding="UTF-8"?>
<svg id="Layer_2" data-name="Layer 2" xmlns="http://www.w3.org/2000/svg" xmlns:xlink="http://www.w3.org/1999/xlink" viewBox="0 0 649.39 96.61">
	<g fill="#454B57">
		<path d="M5.5 4A1.5 1.5 0 107 5.5 1.5 1.5 0 005.5 4zm0 2a.5.5 0 11.5-.5.5.5 0 01-.5.5zM5.5 10A1.5 1.5 0 107 11.5 1.5 1.5 0 005.5 10zm0 2a.5.5 0 11.5-.5.5.5 0 01-.5.5zM5.5 16A1.5 1.5 0 107 17.5 1.5 1.5 0 005.5 16zm0 2a.5.5 0 11.5-.5.5.5 0 01-.5.5zM18.5 5h-10a.5.5 0 000 1h10a.5.5 0 000-1zM18.5 11h-10a.5.5 0 000 1h10a.5.5 0 000-1z">
		</path>
		<path d="M22 13.22V2.5a.5.5 0 00-.5-.5h-19a.5.5 0 00-.5.5v18a.5.5 0 00.5.5h11.84L14 22.25a.15.15 0 00.15.18h.06l2.36-1.25a1.12 1.12 0 00.36-.29l1.71-2.09 3.64-4.44a.73.73 0 00-.11-1M3 3h18v5H3zm0 6h18v3.52h-.15a.71.71 0 00-.56.27l-1 1.23H3zm11.72 10.7l-.08.3H3v-5h15.46l-1.64 2H8.5a.5.5 0 000 1H16l-1.06 1.3a1.2 1.2 0 00-.22.4zm3.12-1.55L16.32 20h-.08l-.35-.28 4-4.93.4.33zm3.16-3.8l-.45-.35.34-.41.4.32z">
		</path>
	</g>
</svg>