<?xml version="1.0" encoding="UTF-8"?>
<svg id="Layer_2" data-name="Layer 2" xmlns="http://www.w3.org/2000/svg" xmlns:xlink="http://www.w3.org/1999/xlink" viewBox="0 0 649.39 96.61">
<path fill="#454B57" d="M5 19.6c-.09.73.33 1.4.88 1.4h12.23c.55 0 1-.67.88-1.4 0-.19-.07-.39-.1-.6h2.94c.42 0 .73-.6.66-1.25-.2-1.82-1.07-5.2-2.73-7a3.54 3.54 0 00.79-2.21 3.4 3.4 0 00-4.82-3.19 4.73 4.73 0 00-4-2.31 4.73 4.73 0 00-4 2.31A3.45 3.45 0 006.38 5 3.46 3.46 0 003 8.5 3.5 3.5 0 004 11a14.82 14.82 0 00-2.49 6.75c-.07.65.24 1.25.66 1.25h2.94M16.19 6.2a2.26 2.26 0 01.94-.2 2.5 2.5 0 010 5 2.26 2.26 0 01-.94-.2 6.1 6.1 0 000-4.6zM11.76 4c2.14 0 3.88 2 3.88 4.5S13.9 13 11.76 13s-3.89-2-3.89-4.5S9.61 4 11.76 4zM4 8.5A2.46 2.46 0 016.38 6a2.31 2.31 0 011 .2 6 6 0 000 4.6 2.31 2.31 0 01-1 .2A2.46 2.46 0 014 8.5zM5.33 18H2.5v-.14a14 14 0 012.3-6.27 3.41 3.41 0 001.58.41 3.45 3.45 0 001.4-.31 4.74 4.74 0 00.37.51A14.49 14.49 0 005.33 18zM18 20H6a.55.55 0 010-.27 14.55 14.55 0 012.85-6.81A4.48 4.48 0 0011.76 14a4.56 4.56 0 003.17-1.32A14.2 14.2 0 0118 19.73a.55.55 0 010 .27zm.7-2a14 14 0 00-3.09-6.09l.15-.22a3.45 3.45 0 001.4.31 3.35 3.35 0 001.84-.6c1.38 1.54 2.25 4.59 2.46 6.46V18z"></path></svg>