<?xml version="1.0" encoding="UTF-8"?>
<svg id="Layer_2" data-name="Layer 2" xmlns="http://www.w3.org/2000/svg" xmlns:xlink="http://www.w3.org/1999/xlink" viewBox="0 0 649.39 96.61">
<g fill="#454B57"><path d="M12 12a.5.5 0 00.5-.5v-5a.5.5 0 00-1 0v5a.5.5 0 00.5.5zM12 13a1 1 0 101 1 1 1 0 00-1-1z"></path><path d="M12 1.5h-.31A9 9 0 003 10v11.89a.6.6 0 00.6.61.59.59 0 00.4-.18l3.7-3.71a8.89 8.89 0 004.3 1.1 9.06 9.06 0 009-9.37 9.17 9.17 0 00-9-8.84zm5.7 14.8a7.94 7.94 0 01-9.52 1.43A1 1 0 007 17.9l-3 3V10.07a8 8 0 017.72-7.57H12a8.13 8.13 0 015.7 13.8z"></path></g></svg>