<?xml version="1.0" encoding="UTF-8"?>
<svg id="Layer_2" data-name="Layer 2" xmlns="http://www.w3.org/2000/svg" xmlns:xlink="http://www.w3.org/1999/xlink" viewBox="0 0 649.39 96.61">
	<g fill="#454B57">
		<path d="M13 2.1a8.79 8.79 0 019 8.54 8.79 8.79 0 01-9 8.54 9.47 9.47 0 01-4.32-1.05 1 1 0 00-.46-.13 1 1 0 00-.69.27L4 21.66v-11.4a.63.63 0 000-.19 8.83 8.83 0 019-8m0-1A9.81 9.81 0 003 10v12.46a.66.66 0 00.67.64.67.67 0 00.47-.19L8.22 19A10.32 10.32 0 0013 20.18a9.78 9.78 0 0010-9.54A9.78 9.78 0 0013 1.1z">
		</path>
		<path d="M16.5 10h-7a.5.5 0 010-1h7a.5.5 0 010 1zM16.5 13h-7a.5.5 0 010-1h7a.5.5 0 010 1z">
		</path>
	</g>
</svg>