<?xml version="1.0" encoding="UTF-8"?>
<svg id="Layer_2" data-name="Layer 2" xmlns="http://www.w3.org/2000/svg" xmlns:xlink="http://www.w3.org/1999/xlink" viewBox="0 0 649.39 96.61">
	<g fill="#454B57">
		<path d="M4 15.91a.5.5 0 00.5-.5v-2.32h7v2.41a.5.5 0 001 0v-2.41h7v2.32a.5.5 0 001 0v-2.82a.5.5 0 00-.5-.5h-7.5V9.5a.5.5 0 00-1 0v2.59H4a.5.5 0 00-.5.5v2.82a.5.5 0 00.5.5zM4 17a2.5 2.5 0 102.5 2.5A2.5 2.5 0 004 17zm0 4a1.5 1.5 0 111.5-1.5A1.5 1.5 0 014 21zM12 17a2.5 2.5 0 102.5 2.5A2.5 2.5 0 0012 17zm0 4a1.5 1.5 0 111.5-1.5A1.5 1.5 0 0112 21zM20 17a2.5 2.5 0 102.5 2.5A2.5 2.5 0 0020 17zm0 4a1.5 1.5 0 111.5-1.5A1.5 1.5 0 0120 21zM9.5 8h5a.5.5 0 00.5-.5v-5a.5.5 0 00-.5-.5h-5a.5.5 0 00-.5.5v5a.5.5 0 00.5.5zm.5-5h4v4h-4z">
		</path>
	</g>
</svg>