<?xml version="1.0" encoding="UTF-8"?>
<svg id="Layer_2" data-name="Layer 2" xmlns="http://www.w3.org/2000/svg" xmlns:xlink="http://www.w3.org/1999/xlink" viewBox="0 0 649.39 96.61">
<g fill="#454B57"><path d="M18.77 2H5.23A1.24 1.24 0 004 3.25V5h-.5a.5.5 0 000 1H4v3h-.5a.5.5 0 000 1H4v3h-.5a.5.5 0 000 1H4v3h-.5a.5.5 0 000 1H4v2.75A1.24 1.24 0 005.23 22h13.54A1.24 1.24 0 0020 20.75V3.25A1.24 1.24 0 0018.77 2zM19 20.75a.24.24 0 01-.23.25H5.23a.24.24 0 01-.23-.25V18h1.5a.5.5 0 000-1H5v-3h1.5a.5.5 0 000-1H5v-3h1.5a.5.5 0 000-1H5V6h1.5a.5.5 0 000-1H5V3.25A.24.24 0 015.23 3h13.54a.24.24 0 01.23.25z"></path><path d="M16 8H8.5a.5.5 0 000 1H16a.5.5 0 000-1zM16 11H9.5a.5.5 0 000 1H16a.5.5 0 000-1z"></path></g></svg>