<?xml version="1.0" encoding="UTF-8"?>
<svg id="Layer_2" data-name="Layer 2" xmlns="http://www.w3.org/2000/svg" xmlns:xlink="http://www.w3.org/1999/xlink" viewBox="0 0 649.39 96.61">
<g fill="#454B57"><path d="M13.91 1.17A10.54 10.54 0 0012 1a11 11 0 00-1.9 21.83A10.54 10.54 0 0012 23a11 11 0 001.9-21.83zm7.94 12.57A10 10 0 0112 22a10.34 10.34 0 01-1.75-.15A10 10 0 0112 2a10.34 10.34 0 011.75.15 10 10 0 018.11 11.59z"></path><path d="M12 15a1 1 0 101 1 1 1 0 00-1-1zM12.8 6.82A3 3 0 009 9.76a.5.5 0 00.5.5.5.5 0 00.5-.5 2 2 0 01.8-1.63 2 2 0 013.16 1.08 2.07 2.07 0 01-.38 1.79 2 2 0 01-1.58.78.5.5 0 00-.5.5v1.48a.5.5 0 001 0v-1a2.94 2.94 0 001.87-1.12A3.05 3.05 0 0014.91 9a3 3 0 00-2.11-2.18z"></path></g></svg>