<?xml version="1.0" encoding="UTF-8"?>
<svg id="Layer_2" data-name="Layer 2" xmlns="http://www.w3.org/2000/svg" xmlns:xlink="http://www.w3.org/1999/xlink" viewBox="0 0 649.39 96.61">
<g fill="#454B57"><path d="M7.5 7h3a.5.5 0 000-1h-3a.5.5 0 000 1zM10.5 10a.5.5 0 000-1h-3a.5.5 0 000 1zM16 10.5a1.5 1.5 0 00-1.5 1.5 1.54 1.54 0 00.3.9l-1.48 3.71-1-1A1.5 1.5 0 109.5 15a1.49 1.49 0 00.5 1.1l-.63 1.45A1.36 1.36 0 009 17.5a1.51 1.51 0 101.21.62l.7-1.63H11a1.51 1.51 0 00.64-.15l1 1a1.5 1.5 0 101.76-.8l1.25-3.1a1.86 1.86 0 00.34 0 1.5 1.5 0 000-3zm-7 9a.5.5 0 11.5-.5.5.5 0 01-.5.5zm2-4a.5.5 0 11.5-.5.5.5 0 01-.5.5zm3.5 2.5a.5.5 0 11-.5-.5.5.5 0 01.5.5zm1.5-5.5a.5.5 0 11.5-.5.5.5 0 01-.5.5z"></path><path d="M19.64 7.26l-4.82-4.89A1.19 1.19 0 0014 2H5.23A1.24 1.24 0 004 3.25v17.5A1.24 1.24 0 005.23 22h13.54A1.24 1.24 0 0020 20.75V8.15a1.27 1.27 0 00-.36-.89zm-.7.74H15V4l3.93 4h.01zm-.17 13H5.23a.24.24 0 01-.23-.25V3.25A.24.24 0 015.23 3H14v5.5a.5.5 0 00.5.5H19v11.75a.24.24 0 01-.23.25z"></path></g></svg>