<?xml version="1.0" encoding="UTF-8"?>
<svg id="Layer_2" data-name="Layer 2" xmlns="http://www.w3.org/2000/svg" xmlns:xlink="http://www.w3.org/1999/xlink" viewBox="0 0 649.39 96.61">
<g fill="rgb(110, 110, 110)"><path d="M24.17 23.59l-2.69-1.21-1.1-2.7a.49.49 0 00-.65-.27.49.49 0 00-.27.65l1.09 2.69a1 1 0 00.54.55l2.67 1.2a.54.54 0 00.21.05.51.51 0 00.46-.3.5.5 0 00-.26-.66z"></path><path d="M28 21.54a1.86 1.86 0 00.38-1.43c-.2-1.69-1.14-5.57-3.18-7.74A3.91 3.91 0 0026 10a4 4 0 00-8 0 3.91 3.91 0 00.8 2.37 10.34 10.34 0 00-1.8 2.88 8.91 8.91 0 00-1.3-1.37A6.28 6.28 0 0017 10a5.77 5.77 0 00-5.5-6A5.77 5.77 0 006 10a6.26 6.26 0 001.76 4.39A15.78 15.78 0 004 22.49 1.22 1.22 0 005 24h10.28a6.4 6.4 0 0012.62-1.5 7.54 7.54 0 00-.06-.84 1.67 1.67 0 00.16-.12zM22 6.8a3.2 3.2 0 11-3.2 3.2A3.21 3.21 0 0122 6.8zM6.8 10a5 5 0 014.7-5.2 5 5 0 014.7 5.2 5 5 0 01-4.7 5.2A5 5 0 016.8 10zM5 23.2l-.08-.06a.68.68 0 01-.13-.54 15 15 0 013.54-7.69A5.12 5.12 0 0011.5 16a5.23 5.23 0 003.66-1.53 10.16 10.16 0 012.34 3 6.41 6.41 0 00-2.4 5v.7zm16.5 4.9a5.6 5.6 0 115.6-5.6 5.6 5.6 0 01-5.6 5.6zm0-12a6.38 6.38 0 00-3.35.95c-.19-.36-.41-.71-.63-1.05a10.11 10.11 0 011.82-3 3.92 3.92 0 005.32 0c1.74 1.88 2.7 5.29 2.93 7.25a1.71 1.71 0 010 .32 6.42 6.42 0 00-6.09-4.47z"></path></g></svg>