<svg class="h-9 w-auto" id="Layer_2" data-name="Layer 2" width="24" height="24" xmlns="http://www.w3.org/2000/svg" xmlns:xlink="http://www.w3.org/1999/xlink" viewBox="0 0 24 24">
  <g fill="#454B57">
    <path d="M22 6H2a1 1 0 00-1 1v10a1 1 0 001 1h20a1 1 0 001-1V7a1 1 0 00-1-1zM2 10a3.3 3.3 0 003-3h14a3.3 3.3 0 003 3v4.1a3.3 3.3 0 00-3 2.9H5a3.3 3.3 0 00-3-2.95zm20-1a2.29 2.29 0 01-1.95-2H22zM3.94 7A2.27 2.27 0 012 9V7zM2 15.06A2.29 2.29 0 014 17H2zM20.06 17A2.27 2.27 0 0122 15v2z"></path>
    <path d="M12 16a3.78 3.78 0 003.5-4A3.78 3.78 0 0012 8a3.78 3.78 0 00-3.5 4 3.78 3.78 0 003.5 4zm0-7a2.79 2.79 0 012.5 3 2.79 2.79 0 01-2.5 3 2.79 2.79 0 01-2.5-3A2.79 2.79 0 0112 9zM18.5 13a1.5 1.5 0 10-1.5-1.5 1.5 1.5 0 001.5 1.5zm0-2a.5.5 0 11-.5.5.5.5 0 01.5-.5zM5.5 13A1.5 1.5 0 104 11.5 1.5 1.5 0 005.5 13zm0-2a.5.5 0 11-.5.5.5.5 0 01.5-.5z"></path>
  </g>
</svg>