<?xml version="1.0" encoding="UTF-8"?>
<svg id="Layer_2" data-name="Layer 2" xmlns="http://www.w3.org/2000/svg" xmlns:xlink="http://www.w3.org/1999/xlink" viewBox="0 0 649.39 96.61">
<g fill="rgb(110, 110, 110)"><path d="M28.5 3h-25A1.5 1.5 0 002 4.5v23A1.5 1.5 0 003.5 29h25a1.5 1.5 0 001.5-1.5v-23A1.5 1.5 0 0028.5 3zM3 27.5v-23a.5.5 0 01.5-.5H21v2H6.5a.5.5 0 00-.5.5v1a.5.5 0 00.5.5H21v3h-9.5a.5.5 0 00-.5.5v1a.5.5 0 00.5.5H21v4.071a1.99 1.99 0 000 3.858V24h-9.5a.5.5 0 00-.5.5v1a.5.5 0 00.5.5H21v2H3.5a.5.5 0 01-.5-.5zM21.5 18a1 1 0 11-1 1 1 1 0 011-1zm7.5 9.5a.5.5 0 01-.5.5H22v-2h1.5a.5.5 0 00.5-.5v-1a.5.5 0 00-.5-.5H22v-3.071a1.99 1.99 0 000-3.858V13h3.5a.5.5 0 00.5-.5v-1a.5.5 0 00-.5-.5H22V8h1.5a.5.5 0 00.5-.5v-1a.5.5 0 00-.5-.5H22V4h6.5a.5.5 0 01.5.5z"></path><rect x="8" y="18" width="9" height="2" rx=".5"></rect></g></svg>