<svg class="h-9 w-auto" id="Layer_2" data-name="Layer 2" width="24" height="24" xmlns="http://www.w3.org/2000/svg" xmlns:xlink="http://www.w3.org/1999/xlink" viewBox="0 0 24 24">
  <g fill="#454B57">
    <path d="M16.5 22.1h-2.4c-.3 0-.5-.2-.5-.5l-.1-1.5c-.6-.2-1.1-.5-1.5-.9l-1.4.6c-.2.1-.5 0-.6-.2l-1.2-2.1c-.1-.2-.1-.5.1-.7l1.2-.9c-.1-.6-.1-1.2 0-1.8l-1.2-.9c-.2-.1-.3-.4-.1-.7l1.2-2.1c.1-.2.4-.3.6-.2l1.4.6c.5-.4 1-.7 1.5-.9l.1-1.5c0-.3.2-.5.5-.5h2.4c.3 0 .5.2.5.5l.1 1.5c.6.2 1.1.5 1.5.9l1.4-.6c.2-.1.5 0 .6.2l1.2 2.1c.1.2.1.5-.1.7l-1.2.9c.1.3.1.6.1.9 0 .3 0 .6-.1.9l1.2.9c.2.1.3.4.1.7l-1.2 2.1c-.1.2-.4.3-.6.2l-1.4-.6c-.5.4-1 .7-1.5.9l-.1 1.5c0 .3-.2.5-.5.5zm-1.9-1h1.5l.1-1.4c0-.2.2-.4.4-.4.6-.2 1.2-.5 1.7-1 .1-.1.4-.2.6-.1l1.2.6.8-1.3-1.1-.8c-.2-.1-.2-.3-.2-.5.1-.3.1-.7.1-1 0-.3 0-.7-.1-1 0-.2 0-.4.2-.5l1.1-.8-.8-1.3-1.3.4c-.2.1-.4 0-.6-.1-.5-.5-1.1-.8-1.7-1-.2-.1-.3-.2-.4-.4L16 9.1h-1.5l-.1 1.4c0 .2-.2.4-.4.4-.6.2-1.2.5-1.7 1-.1.1-.3.1-.5.1l-1.2-.6-.8 1.3 1.1.8c.2.1.2.3.2.5-.2.7-.2 1.3 0 2 0 .2 0 .4-.2.5l-1.1.8.8 1.3 1.2-.6c.2-.1.4 0 .6.1.5.5 1.1.8 1.7 1 .2.1.3.2.4.4l.1 1.6z"></path>
    <path d="M15.3 17.6c-1.4 0-2.6-1.1-2.6-2.6s1.1-2.6 2.6-2.6 2.6 1.1 2.6 2.6-1.2 2.6-2.6 2.6zm0-4.1c-.9 0-1.6.7-1.6 1.6s.7 1.6 1.6 1.6 1.6-.7 1.6-1.6-.7-1.6-1.6-1.6z"></path>
    <path d="M19.4 2H3.6C2.7 2 2 2.7 2 3.6v15.9c0 .8.7 1.5 1.6 1.5h4.5c.3 0 .5-.2.5-.5s-.2-.5-.5-.5H3.6c-.3 0-.6-.3-.6-.6V7h17v1.5c0 .3.2.5.5.5s.5-.2.5-.5v-5c0-.8-.7-1.5-1.6-1.5zM3 6V3.6c0-.3.3-.6.6-.6h15.9c.2 0 .5.3.5.6V6H3z"></path>
    <circle cx="5.5" cy="4.5" r=".5"></circle>
    <circle cx="7.5" cy="4.5" r=".5"></circle>
  </g>
</svg>