<?xml version="1.0" encoding="UTF-8"?>
<svg id="Layer_2" data-name="Layer 2" xmlns="http://www.w3.org/2000/svg" xmlns:xlink="http://www.w3.org/1999/xlink" viewBox="0 0 649.39 96.61">
	<g fill="#454B57">
		<path d="M18.5 5h-.28a2 2 0 00-1.72-1h-.81A3.63 3.63 0 0012 1.25 3.63 3.63 0 008.31 4H7.5a2 2 0 00-1.72 1H5.5A1.5 1.5 0 004 6.5v14A1.5 1.5 0 005.5 22h13a1.5 1.5 0 001.5-1.5v-14A1.5 1.5 0 0018.5 5zm-11 0h1.22a.47.47 0 00.47-.47A2.61 2.61 0 0112 2.19a2.61 2.61 0 012.81 2.34.47.47 0 00.47.47h1.22a1 1 0 010 2h-9a1 1 0 010-2zM19 20.5a.5.5 0 01-.5.5h-13a.5.5 0 01-.5-.5v-14a.5.5 0 01.5-.5 2 2 0 002 2h9a2 2 0 002-2 .5.5 0 01.5.5z">
		</path>
			<circle cx="12" cy="4.5" r="1">
			</circle>
		<path d="M14.65 11.5l-3.94 3.94-1.36-1.36a.49.49 0 00-.7.7l1.71 1.72a.52.52 0 00.71 0l4.28-4.29a.5.5 0 000-.71.5.5 0 00-.7 0z">
		</path>
	</g>
</svg>