<?xml version="1.0" encoding="UTF-8"?>
<svg id="Layer_2" data-name="Layer 2" xmlns="http://www.w3.org/2000/svg" xmlns:xlink="http://www.w3.org/1999/xlink" viewBox="0 0 649.39 96.61">
<g><path d="M14.08 1H1.92a.92.92 0 00-.92.92v7.62a1.3 1.3 0 00.38.93l3.44 4.18a1.38 1.38 0 00.91.35h8.35a.92.92 0 00.92-.92V1.92a.92.92 0 00-.92-.92zm-11.8 9H5v3.3zM14 14H6V9.5a.5.5 0 00-.5-.5H2V2h12z"></path><path d="M8.5 5h3a.5.5 0 000-1h-3a.5.5 0 000 1zM8.5 7h3a.5.5 0 000-1h-3a.5.5 0 000 1zM8.5 9h3a.5.5 0 000-1h-3a.5.5 0 000 1zM4.45 6.42a.51.51 0 00.7 0l2.14-2.14a.48.48 0 000-.7.5.5 0 00-.71 0L4.8 5.36l-.71-.72a.5.5 0 10-.71.71z"></path></g></svg>