<?xml version="1.0" encoding="UTF-8"?>
<svg id="Layer_2" data-name="Layer 2" xmlns="http://www.w3.org/2000/svg" xmlns:xlink="http://www.w3.org/1999/xlink" viewBox="0 0 649.39 96.61">
<path fill="rgb(110, 110, 110)" d="M28 24.43c-.29-2.19-1.51-6.15-3.82-8.51A6.31 6.31 0 0025.5 12 5.77 5.77 0 0020 6a5.77 5.77 0 00-5.5 6 6.31 6.31 0 001.34 3.92 10.58 10.58 0 00-1.35 1.75A7.79 7.79 0 0012.33 15a4.24 4.24 0 001.17-3A3.78 3.78 0 0010 8a3.78 3.78 0 00-3.5 4 4.2 4.2 0 001.3 3.09C5.47 17 4.27 21.33 4 23.59c-.08.74.29 1.41.77 1.41H12a1.12 1.12 0 001 1h14c.62 0 1.09-.75 1-1.57zM20 7a4.77 4.77 0 014.5 5 4.77 4.77 0 01-4.5 5 4.77 4.77 0 01-4.5-5A4.77 4.77 0 0120 7zM7.5 12A2.79 2.79 0 0110 9a2.79 2.79 0 012.5 3 2.79 2.79 0 01-2.5 3 2.79 2.79 0 01-2.5-3zm1 3.57a1.61 1.61 0 01-.28-.17 2.61 2.61 0 00.24.17zM12.09 24H5a.88.88 0 010-.29c.25-2.21 1.47-6.56 3.65-8A3 3 0 0010 16a3.11 3.11 0 001.5-.4 6.94 6.94 0 012.39 3.11 18.7 18.7 0 00-1.8 5.29zm14.82 1H13.09a.59.59 0 01-.08-.43 17.28 17.28 0 012.12-6.06 9.69 9.69 0 011.39-1.86 5.16 5.16 0 007 0 9.69 9.69 0 011.39 1.86A17.28 17.28 0 0127 24.57a.59.59 0 01-.09.43z"></path></svg>