<?xml version="1.0" encoding="UTF-8"?>
<svg id="Layer_2" data-name="Layer 2" xmlns="http://www.w3.org/2000/svg" xmlns:xlink="http://www.w3.org/1999/xlink" viewBox="0 0 649.39 96.61">
<g fill="rgb(110, 110, 110)"><path d="M12.5 8h-4a.5.5 0 000 1h4a.5.5 0 000-1zM12.5 11h-4a.5.5 0 000 1h4a.5.5 0 000-1zM12.5 14h-4a.5.5 0 000 1h4a.5.5 0 000-1z"></path><path d="M25 18.13v-6.72a1.24 1.24 0 000-.27.35.35 0 000-.14.5.5 0 00-.26-.43 1.44 1.44 0 00-.22-.27l-6.33-5.87A1.56 1.56 0 0017.1 4H5.62A1.56 1.56 0 004 5.5v21A1.56 1.56 0 005.62 28h11.12a6.52 6.52 0 003.68 2 6.43 6.43 0 001.14.1 6.5 6.5 0 003.44-12zm-1.74-7.63H17.5V5.15zM5.62 27a.58.58 0 01-.62-.5v-21a.58.58 0 01.62-.5H16.5v6a.5.5 0 00.5.5h7v6.12a6.47 6.47 0 00-1.32-.38 6.24 6.24 0 00-1.13-.1A6.49 6.49 0 0016 27zM27 24.59a5.49 5.49 0 01-5.41 4.55 5.2 5.2 0 01-1-.09 5.5 5.5 0 01.95-10.91 6.22 6.22 0 011 .08A5.5 5.5 0 0127 24.59z"></path><path d="M24.54 24.76l-2.76-1.58-.78-3.06a.5.5 0 10-1 .24l.81 3.26a.49.49 0 00.24.32L24 25.63a.57.57 0 00.25.06.5.5 0 00.25-.93z"></path></g></svg>