<?xml version="1.0" encoding="UTF-8"?>
<svg id="Layer_2" data-name="Layer 2" xmlns="http://www.w3.org/2000/svg" xmlns:xlink="http://www.w3.org/1999/xlink" viewBox="0 0 649.39 96.61">
<path fill="#454B57" d="M20.73 19.94c-.3-2-1.6-6.27-4.42-8.67A5.83 5.83 0 0017 8.5 5.27 5.27 0 0012 3a5.27 5.27 0 00-5 5.5 5.8 5.8 0 00.69 2.77c-2.83 2.4-4.12 6.67-4.42 8.67a2 2 0 00.42 1.54A1.5 1.5 0 004.8 22h14.4a1.5 1.5 0 001.11-.52 2 2 0 00.42-1.54zM12 4a4.27 4.27 0 014 4.5 4.27 4.27 0 01-4 4.5 4.27 4.27 0 01-4-4.5A4.27 4.27 0 0112 4zm7.55 16.82a.48.48 0 01-.35.18H4.8a.48.48 0 01-.35-.18.93.93 0 01-.19-.74c.31-2.13 1.64-5.88 4-7.95A4.83 4.83 0 0012 14a4.83 4.83 0 003.75-1.87c2.35 2.07 3.67 5.81 4 7.95a.93.93 0 01-.2.74z"></path></svg>