<?xml version="1.0" encoding="UTF-8"?>
<svg id="Layer_1" xmlns="http://www.w3.org/2000/svg" version="1.1" viewBox="0 0 1200 321.33">
  <!-- Generator: Adobe Illustrator 29.8.2, SVG Export Plug-In . SVG Version: 2.1.1 Build 3)  -->
  <defs>
    <style>
      .st0 {
        fill: #fff;
      }

      .st1 {
        fill: #fff;
      }
    </style>
  </defs>
  <g>
    <g>
      <path class="st1" d="M493.6,166.42c4.44-2.02,7.94-4.97,10.51-8.85s3.85-8.33,3.85-13.37c0-9.07-3.13-15.85-9.4-20.33-6.27-4.49-14.34-6.73-24.21-6.73h-49.89v107.62h52.7c10.37,0,18.91-2.79,25.62-8.39,6.71-5.59,10.07-13.48,10.07-23.65,0-13.81-6.42-22.58-19.25-26.3ZM446.96,135.43h21.02c5.34,0,9.58.88,12.74,2.64,3.16,1.77,4.74,5.12,4.74,10.06,0,8.36-5.83,12.54-17.48,12.54h-21.02v-25.24ZM484.49,203c-3.5,2.01-8.26,3.02-14.28,3.02h-23.25v-29.32h22.06c6.42,0,11.48.98,15.18,2.94,3.7,1.97,5.55,5.87,5.55,11.72s-1.75,9.62-5.26,11.64Z"/>
      <path class="st1" d="M552.53,204.96v-26.45h51.52v-18.59h-51.52v-23.43h56.11v-19.35h-79.06v107.62h80.1v-19.8h-57.15Z"/>
      <path class="st1" d="M689.78,116.99h-23.84l-40.12,107.77h23.69l8.58-24.03h39.24l8.29,24.03h24.28l-40.12-107.77ZM663.72,183.5l14.06-40.06,13.92,40.06h-27.98Z"/>
      <path class="st1" d="M817.38,188.43c-3.24,12.64-11.66,18.95-25.25,18.95-9.24,0-16.59-3.3-22.07-9.9-5.48-6.6-8.23-15.44-8.23-26.53,0-6.35.97-12.19,2.91-17.53,1.94-5.34,5.29-9.85,10.06-13.53,4.79-3.68,10.66-5.52,17.65-5.52s12.37,1.64,16.83,4.91c4.45,3.28,7.32,7.89,8.62,13.83h24.64c-.97-11.18-6.07-20.4-15.3-27.66-9.24-7.25-20.67-10.88-34.32-10.88-17.07,0-30.74,5.34-41,16.02-10.26,10.68-15.39,24.09-15.39,40.21,0,17.03,5.07,30.71,15.22,41.04,10.15,10.33,23.55,15.49,40.19,15.49,15.36,0,27.44-3.98,36.24-11.94,7.64-6.9,12.46-15.89,14.43-26.96h-25.25Z"/>
      <path class="st1" d="M949.84,130.21c-9.52-10.42-21.98-15.64-37.38-15.64s-28.45,5.17-37.98,15.49c-9.52,10.33-14.29,24.01-14.29,41.04s4.79,30.41,14.37,40.74c9.57,10.33,22.15,15.49,37.75,15.49s28.01-5.16,37.53-15.49c9.53-10.33,14.29-23.91,14.29-40.74s-4.76-30.46-14.29-40.89ZM933.19,197.86c-5.04,6.65-11.95,9.97-20.73,9.97-8.98-.1-16.04-3.42-21.17-9.97-5.14-6.55-7.7-15.62-7.7-27.21s2.59-20.1,7.77-26.76c5.18-6.65,12.12-9.97,20.8-9.97s15.74,3.3,20.88,9.9c5.13,6.6,7.7,15.54,7.7,26.83s-2.52,20.56-7.55,27.21Z"/>
      <path class="st1" d="M1052.82,117.14v72.1l-43.38-72.1h-23.54v107.62h22.35v-72.25l43.68,72.25h23.1v-107.62h-22.21Z"/>
    </g>
    <g>
      <path class="st0" d="M325.7,120.94c0,2.61-1.49,5.1-4.01,6.26l-21.5,9.93c-3.46,1.6-7.55.09-9.15-3.37-.43-.93-.64-1.92-.64-2.88,0-.9.18-1.78.51-2.6.64-1.57,1.85-2.9,3.5-3.67l21.51-9.92c3.45-1.6,7.55-.09,9.14,3.37.43.93.64,1.92.64,2.88Z"/>
      <path class="st0" d="M327.97,163.55c-.94,2.93-3.65,4.8-6.56,4.8-.7,0-1.4-.11-2.1-.33l-22.57-7.2c-3.63-1.16-5.63-5.04-4.47-8.67.94-2.93,3.65-4.8,6.56-4.8.7,0,1.4.11,2.1.33l22.57,7.21c3.63,1.16,5.63,5.03,4.47,8.66Z"/>
      <path class="st0" d="M245.21,40.43c-66.3,0-120.23,53.93-120.23,120.23s53.93,120.24,120.23,120.24,120.23-53.94,120.23-120.24-53.93-120.23-120.23-120.23ZM245.21,224.36c-4.16,0-7.53-3.37-7.53-7.53v-9.96c0-4.16,3.37-7.53,7.53-7.53,2.08,0,3.96.84,5.32,2.2s2.21,3.25,2.21,5.33v9.96c0,4.16-3.37,7.53-7.53,7.53ZM256.6,156.32h-24.7v-25.59h24.7v25.59ZM288.35,258.86l-14.61-79.05h.2l8.42-9.27v-14.22h-12.16v-25.59h10.9c-1.28-16.8-13.8-30.46-30.05-33.48v-6.07c0-3.76-3.04-6.8-6.8-6.8-1.88,0-3.58.76-4.81,1.99s-1.99,2.93-1.99,4.81v6.07c-16.25,3.02-28.77,16.68-30.05,33.48h10.9v25.59h-12.16v14.22l8.62,9.27-14.47,78.25c-36.79-16.99-62.31-54.22-62.31-97.4,0-59.22,48.01-107.23,107.23-107.23s107.23,48.01,107.23,107.23c0,43.87-26.35,81.6-64.09,98.2Z"/>
    </g>
  </g>
  <g>
    <g>
      <path class="st1" d="M-784.02,166.42c4.44-2.02,7.94-4.97,10.51-8.85s3.85-8.33,3.85-13.37c0-9.07-3.13-15.85-9.4-20.33-6.27-4.49-14.34-6.73-24.21-6.73h-49.89v107.62h52.7c10.37,0,18.91-2.79,25.62-8.39,6.71-5.59,10.07-13.48,10.07-23.65,0-13.81-6.42-22.58-19.25-26.3ZM-830.66,135.43h21.02c5.34,0,9.58.88,12.74,2.64,3.16,1.77,4.74,5.12,4.74,10.06,0,8.36-5.83,12.54-17.48,12.54h-21.02v-25.24ZM-793.13,203c-3.5,2.01-8.26,3.02-14.28,3.02h-23.25v-29.32h22.06c6.42,0,11.48.98,15.18,2.94,3.7,1.97,5.55,5.87,5.55,11.72s-1.75,9.62-5.26,11.64Z"/>
      <path class="st1" d="M-725.09,204.96v-26.45h51.52v-18.59h-51.52v-23.43h56.11v-19.35h-79.06v107.62h80.1v-19.8h-57.15Z"/>
      <path class="st1" d="M-587.84,116.99h-23.84l-40.12,107.77h23.69l8.58-24.03h39.24l8.29,24.03h24.28l-40.12-107.77ZM-613.9,183.5l14.06-40.06,13.92,40.06h-27.98Z"/>
      <path class="st1" d="M-460.24,188.43c-3.24,12.64-11.66,18.95-25.25,18.95-9.24,0-16.59-3.3-22.07-9.9-5.48-6.6-8.23-15.44-8.23-26.53,0-6.35.97-12.19,2.91-17.53,1.94-5.34,5.29-9.85,10.06-13.53,4.79-3.68,10.66-5.52,17.65-5.52s12.37,1.64,16.83,4.91c4.45,3.28,7.32,7.89,8.62,13.83h24.64c-.97-11.18-6.07-20.4-15.3-27.66-9.24-7.25-20.67-10.88-34.32-10.88-17.07,0-30.74,5.34-41,16.02-10.26,10.68-15.39,24.09-15.39,40.21,0,17.03,5.07,30.71,15.22,41.04,10.15,10.33,23.55,15.49,40.19,15.49,15.36,0,27.44-3.98,36.24-11.94,7.64-6.9,12.46-15.89,14.43-26.96h-25.25Z"/>
      <path class="st1" d="M-327.78,130.21c-9.52-10.42-21.98-15.64-37.38-15.64s-28.45,5.17-37.98,15.49c-9.52,10.33-14.29,24.01-14.29,41.04s4.79,30.41,14.37,40.74c9.57,10.33,22.15,15.49,37.75,15.49s28.01-5.16,37.53-15.49c9.53-10.33,14.29-23.91,14.29-40.74s-4.76-30.46-14.29-40.89ZM-344.43,197.86c-5.04,6.65-11.95,9.97-20.73,9.97-8.98-.1-16.04-3.42-21.17-9.97-5.14-6.55-7.7-15.62-7.7-27.21s2.59-20.1,7.77-26.76c5.18-6.65,12.12-9.97,20.8-9.97s15.74,3.3,20.88,9.9c5.13,6.6,7.7,15.54,7.7,26.83s-2.52,20.56-7.55,27.21Z"/>
      <path class="st1" d="M-224.8,117.14v72.1l-43.38-72.1h-23.54v107.62h22.35v-72.25l43.68,72.25h23.1v-107.62h-22.21Z"/>
    </g>
    <g>
      <path class="st0" d="M-951.92,120.94c0,2.61-1.49,5.1-4.01,6.26l-21.5,9.93c-3.46,1.6-7.55.09-9.15-3.37-.43-.93-.64-1.92-.64-2.88,0-.9.18-1.78.51-2.6.64-1.57,1.85-2.9,3.5-3.67l21.51-9.92c3.45-1.6,7.55-.09,9.14,3.37.43.93.64,1.92.64,2.88Z"/>
      <path class="st0" d="M-949.65,163.55c-.94,2.93-3.65,4.8-6.56,4.8-.7,0-1.4-.11-2.1-.33l-22.57-7.2c-3.63-1.16-5.63-5.04-4.47-8.67.94-2.93,3.65-4.8,6.56-4.8.7,0,1.4.11,2.1.33l22.57,7.21c3.63,1.16,5.63,5.03,4.47,8.66Z"/>
      <path class="st0" d="M-1032.41,40.43c-66.3,0-120.23,53.93-120.23,120.23s53.93,120.24,120.23,120.24,120.23-53.94,120.23-120.24-53.93-120.23-120.23-120.23ZM-1032.41,224.36c-4.16,0-7.53-3.37-7.53-7.53v-9.96c0-4.16,3.37-7.53,7.53-7.53,2.08,0,3.96.84,5.32,2.2s2.21,3.25,2.21,5.33v9.96c0,4.16-3.37,7.53-7.53,7.53ZM-1021.02,156.32h-24.7v-25.59h24.7v25.59ZM-989.27,258.86l-14.61-79.05h.2l8.42-9.27v-14.22h-12.16v-25.59h10.9c-1.28-16.8-13.8-30.46-30.05-33.48v-6.07c0-3.76-3.04-6.8-6.8-6.8-1.88,0-3.58.76-4.81,1.99s-1.99,2.93-1.99,4.81v6.07c-16.25,3.02-28.77,16.68-30.05,33.48h10.9v25.59h-12.16v14.22l8.62,9.27-14.47,78.25c-36.79-16.99-62.31-54.22-62.31-97.4,0-59.22,48.01-107.23,107.23-107.23s107.23,48.01,107.23,107.23c0,43.87-26.35,81.6-64.09,98.2Z"/>
    </g>
  </g>
</svg>